<?xml version="1.0" encoding="utf-8"?>
<!-- Generator: Adobe Illustrator 28.1.0, SVG Export Plug-In . SVG Version: 6.00 Build 0)  -->
<svg version="1.1" id="Logo" xmlns="http://www.w3.org/2000/svg" xmlns:xlink="http://www.w3.org/1999/xlink" x="0px" y="0px"
	 viewBox="0 0 703.9 394" style="enable-background:new 0 0 703.9 394;" xml:space="preserve">
<style type="text/css">
	.st0{fill:#FFD200;}
	.st1{fill:#010101;}
</style>
<path class="st0" d="M549.6,196.5c-20.1,51.8-35.2,135.2-40.8,168c-38.2-11.5-78-21.1-118.5-30.9c-131.3-31.3-319.8-46.9-368-50.1
	L22.2,22.1l628.3,0.5C611.3,67.9,576,128.7,549.6,196.5"/>
<path class="st1" d="M393.4,251.1c15.5,0,24.9-5.7,34.6-17.4l-13.6-10c-5.5,6.5-11.4,10.6-20.4,10.6c-7.5,0-11.9-3.6-13.6-9.1
	c-0.6-1.8-0.9-4.4-0.4-5.8l49.8-0.1c1.3-4.4,2.1-9.1,2.1-12.3c0-17.2-12.7-30.8-33.4-30.8c-24.7,0-40.2,20.2-40.2,42.5
	C358.2,239.4,374.3,251.1,393.4,251.1z M398.3,193.2c7.4,0,11.1,4.9,11.4,12H382C384.6,198.1,390,193,398.3,193.2z"/>
<path class="st1" d="M210.8,176c-24.7,0-40.2,20.2-40.2,42.5c0,20.9,16,32.6,35.1,32.6c15.5,0,24.9-5.7,34.6-17.4l-13.6-10
	c-5.5,6.5-11.4,10.6-20.4,10.6c-7.5,0-11.9-3.6-13.6-9.1c-0.6-1.8-0.9-4.4-0.4-5.8l49.8-0.1c1.3-4.4,2.1-9.1,2.1-12.3
	C244.3,189.7,231.6,176,210.8,176z M194.4,205.2c2.6-7.1,8.1-12.2,16.4-12c7.4,0,11.1,4.9,11.4,12H194.4z"/>
<polygon class="st1" points="153.4,178 137,220.5 136.8,220.5 131.9,178 113.6,178 96.4,220.8 96.2,220.8 92.8,178 69.9,178 
	79.5,250.2 103,250.2 118,212.3 118.3,212.3 122.9,250.2 145.8,250.2 176.9,178 "/>
<path class="st1" d="M102.7,149.4l8.7-48.3c3.8-4.7,9.5-7.7,15.2-7.7c5.5,0,7.4,4.6,7.4,9.3c0,1.7-0.4,3.8-0.6,5.5l-7.4,41.3h22
	l6.6-36.7c0.9-4.5,1.2-9.4,1.2-13.2c0-15.1-7.9-24.3-22.5-24.3c-9.1,0-16.2,4.2-21.7,10.9l0.2-8.9h-18l-13.1,72.2L102.7,149.4
	L102.7,149.4z"/>
<path class="st1" d="M454.8,250.2l8.7-48.3c3.8-4.7,9.5-7.7,15.2-7.7c5.5,0,7.4,4.6,7.4,9.3c0,1.7-0.4,3.8-0.6,5.5l-7.4,41.3h22.1
	l6.6-36.7c0.9-4.5,1.2-9.4,1.2-13.2c0-15.1-7.9-24.3-22.5-24.3c-9.1,0-16.2,4.2-21.7,10.9l0.2-8.9h-18l-13.1,72.2L454.8,250.2
	L454.8,250.2z"/>
<path class="st1" d="M257.8,150.2c15.5,0,24.9-5.7,34.6-17.4l-13.6-10c-5.5,6.5-11.4,10.6-20.4,10.6c-7.5,0-11.9-3.6-13.6-9.1
	c-0.6-1.8-0.9-4.4-0.4-5.8l49.8-0.1c1.3-4.4,2.1-9.1,2.1-12.3c0-17.2-12.7-30.8-33.4-30.8c-24.7,0-40.2,20.2-40.2,42.5
	C222.7,138.4,238.7,150.2,257.8,150.2z M262.8,92.3c7.4,0,11.1,4.9,11.4,12h-27.8C249,97.2,254.5,92.1,262.8,92.3z"/>
<path class="st1" d="M328.6,102c3.6-5.2,9.6-8.2,14.3-8.2c2.7,0,5.9,1.1,8.7,3.8l9.3-19.1c-3-1.5-6.8-3-12-3
	c-7.5,0-12.6,4.9-17.5,11.1l0.2-9.6h-20.5L298,149.2h22L328.6,102z"/>
<polygon class="st1" points="79.4,77.1 57.3,77.1 44.3,149.4 66.3,149.4 "/>
<path class="st1" d="M0,0l0.3,304.7l10.2,0.6c2.3,0.1,225.6,14.6,373.6,50c44.9,10.7,88.5,21.6,130.1,34.5l12.4,4.2l2.1-12.8
	c0.1-1,17.6-114.4,41.5-176.2C599.5,129.8,640,64,684,19.8l19.9-19.2L0,0z M549.6,196.6c-20.1,51.8-35.2,135.2-40.8,168
	c-38.2-11.5-78-21.1-118.5-30.9c-131.3-31.3-319.8-46.9-368-50.1L22.2,22.2l628.3,0.5C611.3,68,576,128.7,549.6,196.6z"/>
<polygon class="st1" points="60.6,59.4 82.6,59.4 89.4,22.2 67.3,22.2 "/>
<path class="st1" d="M170.5,122.2c-0.6,3.4-0.8,6.3-0.8,8.7c-0.1,10.7,8.5,19.3,21.1,19.3h0.7c7.1-0.1,12.9-2,17.2-4.1
	c0.9-0.4,1.8-0.9,2.5-1.3l-8.4-13.8c-0.4,0.2-0.9,0.4-1.3,0.5c-1.1,0.4-2.3,0.6-3.5,0.7h-1.2c-2.8,0-5.4-1.9-4.9-4.9
	c0.1-0.8,0.2-1.2,0.2-1.2l5.8-32.2h24.9l3-16.8h-24.9l3.4-17.6h-17.8l-7.6,17.6h-14.7l-3,16.8h14.6L170.5,122.2z"/>
<path class="st1" d="M256.7,223.1c-0.6,3.4-0.8,6.3-0.8,8.7c-0.1,10.7,8.5,19.3,21.1,19.3h0.7c7.1-0.1,12.9-2,17.2-4.1
	c0.9-0.4,1.8-0.9,2.5-1.3l-8.4-13.8c-0.4,0.2-0.9,0.4-1.3,0.5c-1.1,0.4-2.3,0.6-3.5,0.7H283c-2.8,0-5.4-1.9-4.9-4.9
	c0.1-0.8,0.2-1.2,0.2-1.2l5.8-32.2H309l3-16.8h-24.9l3.4-17.6h-17.8l-7.6,17.6h-14.7l-3,16.8H262L256.7,223.1z"/>
<path class="st1" d="M306.4,223.1c-0.6,3.4-0.8,6.3-0.8,8.7c-0.1,10.7,8.5,19.3,21.1,19.3h0.7c7.1-0.1,12.9-2,17.2-4.1
	c0.9-0.4,1.8-0.9,2.5-1.3l-8.4-13.8c-0.4,0.2-0.9,0.4-1.3,0.5c-1.1,0.4-2.3,0.6-3.5,0.7h-1.2c-2.8,0-5.4-1.9-4.9-4.9
	c0.1-0.8,0.2-1.2,0.2-1.2l5.8-32.2h24.9l3-16.8H337l3.4-17.6h-17.8L315,178h-14.7l-3,16.8h14.6L306.4,223.1z"/>
</svg>
